<svg width="1680" height="520" viewBox="0 0 1680 520" fill="none" xmlns="http://www.w3.org/2000/svg" role="img" aria-labelledby="title desc">
  <title id="title">EvoMap Console Wordmark</title>
  <desc id="desc">EvoMap Console wordmark with a compact operator map-route mark.</desc>
  <rect width="1680" height="520" rx="72" fill="#F6F3EA"/>
  <rect x="96" y="58" width="404" height="404" rx="104" fill="#0F1F2E"/>
  <path d="M151 174C205 143 269 135 327 152C383 169 423 207 442 260" stroke="#DFF5F0" stroke-opacity="0.11" stroke-width="9" stroke-linecap="round"/>
  <path d="M145 242C205 206 282 194 350 213C397 226 430 256 450 299" stroke="#DFF5F0" stroke-opacity="0.10" stroke-width="7" stroke-linecap="round"/>
  <path d="M205 160H392L324 258L392 356H205L275 258L205 160Z" stroke="#2CA6FF" stroke-width="31" stroke-linecap="round" stroke-linejoin="round"/>
  <path d="M205 160L275 258L205 356" stroke="#07111C" stroke-opacity="0.62" stroke-width="11" stroke-linecap="round" stroke-linejoin="round"/>
  <circle cx="205" cy="160" r="26" fill="#0A1420" stroke="#7DE0D5" stroke-width="13"/>
  <circle cx="324" cy="258" r="29" fill="#0A1420" stroke="#2CA6FF" stroke-width="14"/>
  <circle cx="392" cy="356" r="26" fill="#0A1420" stroke="#F4B85C" stroke-width="13"/>
  <path d="M206 397H320" stroke="#EAF7F4" stroke-opacity="0.9" stroke-width="16" stroke-linecap="round"/>
  <path d="M346 397H388" stroke="#F4B85C" stroke-width="16" stroke-linecap="round"/>
  <text x="560" y="226" fill="#0F1F2E" font-family="Avenir Next, Futura, Helvetica, Arial, sans-serif" font-size="106" font-weight="800" letter-spacing="-2">EvoMap</text>
  <text x="560" y="332" fill="#143B45" font-family="Avenir Next, Futura, Helvetica, Arial, sans-serif" font-size="90" font-weight="500" letter-spacing="3">Console</text>
  <path d="M566 382H1080" stroke="#2CA6FF" stroke-width="14" stroke-linecap="round"/>
  <path d="M1110 382H1244" stroke="#F4B85C" stroke-width="14" stroke-linecap="round"/>
</svg>
