<svg width="1024" height="1024" viewBox="0 0 1024 1024" fill="none" xmlns="http://www.w3.org/2000/svg" role="img" aria-labelledby="title desc">
  <title id="title">EvoMap Console Logo</title>
  <desc id="desc">A dark macOS operator-console icon with a folded map route, connected nodes, and a terminal prompt line.</desc>
  <defs>
    <linearGradient id="bg" x1="128" y1="96" x2="896" y2="928" gradientUnits="userSpaceOnUse">
      <stop offset="0" stop-color="#143B45"/>
      <stop offset="0.56" stop-color="#0F1F2E"/>
      <stop offset="1" stop-color="#08111B"/>
    </linearGradient>
    <linearGradient id="route" x1="304" y1="304" x2="724" y2="724" gradientUnits="userSpaceOnUse">
      <stop offset="0" stop-color="#7DE0D5"/>
      <stop offset="0.52" stop-color="#2CA6FF"/>
      <stop offset="1" stop-color="#F4B85C"/>
    </linearGradient>
    <filter id="shadow" x="64" y="64" width="896" height="896" filterUnits="userSpaceOnUse" color-interpolation-filters="sRGB">
      <feDropShadow dx="0" dy="32" stdDeviation="40" flood-color="#020816" flood-opacity="0.45"/>
    </filter>
  </defs>
  <rect x="96" y="96" width="832" height="832" rx="218" fill="url(#bg)" filter="url(#shadow)"/>
  <path d="M226 332C335 270 464 254 580 288C692 321 771 398 808 504" stroke="#DFF5F0" stroke-opacity="0.10" stroke-width="18" stroke-linecap="round"/>
  <path d="M212 470C333 398 486 374 622 412C716 438 783 497 823 582" stroke="#DFF5F0" stroke-opacity="0.09" stroke-width="14" stroke-linecap="round"/>
  <path d="M236 646C358 574 506 550 638 580C720 599 781 642 820 708" stroke="#DFF5F0" stroke-opacity="0.08" stroke-width="12" stroke-linecap="round"/>
  <path d="M314 304H710L566 512L710 720H314L462 512L314 304Z" stroke="url(#route)" stroke-width="64" stroke-linecap="round" stroke-linejoin="round"/>
  <path d="M314 304L462 512L314 720" stroke="#07111C" stroke-opacity="0.62" stroke-width="22" stroke-linecap="round" stroke-linejoin="round"/>
  <circle cx="314" cy="304" r="54" fill="#0A1420" stroke="#7DE0D5" stroke-width="28"/>
  <circle cx="566" cy="512" r="60" fill="#0A1420" stroke="#2CA6FF" stroke-width="30"/>
  <circle cx="710" cy="720" r="54" fill="#0A1420" stroke="#F4B85C" stroke-width="28"/>
  <path d="M318 800H584" stroke="#EAF7F4" stroke-opacity="0.9" stroke-width="34" stroke-linecap="round"/>
  <path d="M640 800H732" stroke="#F4B85C" stroke-width="34" stroke-linecap="round"/>
</svg>
